<svg t="1684397224732" class="icon" viewBox="0 0 1024 1024" version="1.1" xmlns="http://www.w3.org/2000/svg" p-id="1364" width="48" height="48"><path d="M912.0256 600.832l-158.2592-95.8464a238.6944 238.6944 0 0 0 69.4272-170.5984c0-125.2352-91.7504-227.1744-204.4928-227.1744S414.2592 209.152 414.2592 334.3872c0 65.4848 25.6 127.6928 69.6832 170.4448l-158.72 96a157.4912 157.4912 0 0 0-75.4688 133.9392v77.8752A108.3392 108.3392 0 0 0 358.4 920.832h520.9088a108.3392 108.3392 0 0 0 108.1856-108.1856v-77.8752a157.4912 157.4912 0 0 0-75.4688-133.9392z m14.0288 211.8144a46.848 46.848 0 0 1-46.7456 46.7456H358.4a46.848 46.848 0 0 1-46.7456-46.7456v-77.8752a95.5392 95.5392 0 0 1 46.08-81.3568L517.12 556.7488a59.5968 59.5968 0 0 0 28.5184-44.544 60.5184 60.5184 0 0 0-18.2784-50.688 176.9472 176.9472 0 0 1-51.2-127.1296c0-91.392 64.1536-165.7344 143.0016-165.7344s143.0528 74.3424 143.0528 165.7344a176.9472 176.9472 0 0 1-51.2 127.1296 60.5184 60.5184 0 0 0-18.2784 50.688 59.5968 59.5968 0 0 0 28.5184 44.544l159.5904 96.6656a95.6416 95.6416 0 0 1 46.08 81.3568z" fill="#d81e06" p-id="1365" data-spm-anchor-id="a313x.7781069.0.i10" class="selected"></path><path d="M734.208 721.4592H503.2448a30.72 30.72 0 1 0 0 61.44h230.9632a30.72 30.72 0 0 0 0-61.44z" fill="#3D3937" p-id="1366"></path><path d="M186.7264 724.7872c0-103.2704 89.7024-170.3424 214.1184-235.1616-111.9744-195.84-18.176-314.2656 50.5344-368.64A148.48 148.48 0 0 0 363.52 91.4432c-90.0608 0-162.8672 82.6368-162.8672 183.9616A194.2016 194.2016 0 0 0 257.536 415.1296a27.7504 27.7504 0 0 1-4.5056 43.8784l-149.4528 90.5216A117.76 117.76 0 0 0 46.7456 650.24v72.96a72.5504 72.5504 0 0 0 72.5504 72.6016h67.4304z" fill="#d81e06" p-id="1367" data-spm-anchor-id="a313x.7781069.0.i11" class="selected"></path></svg>