<svg t="1684402791084" class="icon" viewBox="0 0 1024 1024" version="1.1" xmlns="http://www.w3.org/2000/svg" p-id="1220" width="200" height="200"><path d="M874.3 165.6c0-21.3-17.3-38.5-38.5-38.5-21.3 0-38.5 17.3-38.5 38.5V230C723 161 621.6 120.9 510.7 127.8 321.6 139.5 166.8 291 151.1 479.6c-8.6 103.3 23.7 199.2 82.5 273 14.5 18.2 41.4 20 57.8 3.6 14.1-14.1 14.7-36.4 2.3-52-47.7-60-73.5-138.1-65.4-222.2C242.2 337.3 359 220.2 503.6 205.7c94-9.4 180.6 23.9 242.9 82.6l-76.1-7c-21.2-1.9-39.9 13.7-41.9 34.9-1.9 21.2 13.7 39.9 34.9 41.9l168.9 15.5c0.6 0.1 1.2 0 1.8 0 0.6 0 1.2 0.2 1.8 0.2 0.7 0 1.4-0.2 2.1-0.2 1.3-0.1 2.7-0.2 4-0.4 1.2-0.2 2.4-0.5 3.6-0.8 1.2-0.3 2.4-0.7 3.6-1.1 1.2-0.4 2.3-0.9 3.4-1.5 1.1-0.5 2.2-1.1 3.2-1.7 1.1-0.7 2.1-1.3 3.1-2.1 1-0.7 1.9-1.5 2.8-2.3 0.9-0.8 1.8-1.7 2.6-2.6 0.8-0.9 1.6-1.9 2.4-2.9 0.7-1 1.4-2 2-3.1 0.6-1.1 1.2-2.1 1.8-3.3 0.5-1.1 1-2.3 1.5-3.5 0.4-1.2 0.8-2.3 1.1-3.5 0.3-1.3 0.6-2.6 0.8-3.9 0.1-0.7 0.3-1.4 0.4-2.1 0.1-0.6 0-1.2 0-1.8 0-0.6 0.2-1.2 0.2-1.8V165.6zM468.2 814.6c-2.5-1.2-5.1-2.2-7.9-2.9-21.6-5.4-42.8-13.3-63-23.4-9.4-4.7-18.6-9.9-27.5-15.5-1.1-0.7-2.3-1.4-3.4-1.9-17.5-8.7-39.1-3-49.7 13.9-11.4 18-6 41.7 11.9 53.1 8.9 5.6 18.1 11 27.7 15.9 0.1 0 0.2 0.1 0.3 0.1 0.1 0 0.2 0.1 0.3 0.1 0.1 0 0.2 0.1 0.3 0.1 0.1 0 0.2 0.1 0.2 0.1 0.1 0 0.2 0.1 0.3 0.1 0.1 0 0.2 0.1 0.2 0.1 0.1 0 0.2 0.1 0.2 0.1 0.1 0 0.2 0.1 0.2 0.1 0.1 0 0.2 0.1 0.2 0.1h0.1c0.1 0 0.1 0.1 0.2 0.1h0.1c0.1 0 0.1 0.1 0.2 0.1h0.1c0.1 0 0.1 0.1 0.2 0.1h0.1c0.1 0 0.1 0.1 0.2 0.1h0.1c0.1 0 0.1 0.1 0.2 0.1h0.1c0.1 0 0.1 0.1 0.2 0.1h0.1c0.1 0 0.1 0.1 0.2 0.1h0.1c0.1 0 0.1 0.1 0.2 0.1h0.1c0.1 0 0.1 0.1 0.2 0.1h0.1c0.1 0 0.1 0.1 0.2 0.1h0.1c0.1 0 0.1 0.1 0.2 0.1h0.1c0.1 0 0.1 0.1 0.2 0.1h0.1c0.2 0.1 0.3 0.2 0.5 0.3h0.1c0.1 0 0.2 0.1 0.3 0.1 0.1 0 0.2 0.1 0.3 0.1 0.1 0 0.2 0.1 0.3 0.1 0.1 0 0.2 0.1 0.2 0.1 0.1 0 0.2 0.1 0.2 0.1 0.1 0 0.2 0.1 0.2 0.1 0.1 0 0.2 0.1 0.3 0.1 0.2 0.1 0.3 0.2 0.5 0.3 0.1 0 0.2 0.1 0.3 0.1 0.1 0 0.2 0.1 0.2 0.1 0.1 0 0.2 0.1 0.2 0.1 0.1 0 0.2 0.1 0.2 0.1 0.1 0 0.2 0.1 0.3 0.1 0.1 0 0.2 0.1 0.3 0.1 0.1 0 0.2 0.1 0.3 0.1 0.1 0 0.2 0.1 0.3 0.1 0.1 0 0.2 0.1 0.2 0.1 0.1 0 0.2 0.1 0.2 0.1 0.1 0 0.2 0.1 0.2 0.1 0.1 0 0.2 0.1 0.3 0.1 0.2 0.1 0.3 0.2 0.5 0.3 0.1 0 0.2 0.1 0.3 0.1 0.1 0 0.2 0.1 0.2 0.1 0.1 0 0.2 0.1 0.2 0.1 0.1 0 0.2 0.1 0.3 0.1 0.1 0 0.2 0.1 0.3 0.1 0.1 0 0.2 0.1 0.3 0.1 0.1 0 0.2 0.1 0.3 0.1 0.1 0 0.2 0.1 0.3 0.1 0.1 0 0.2 0.1 0.3 0.1 0.1 0 0.2 0.1 0.3 0.1 0.1 0 0.2 0.1 0.3 0.1 0.1 0 0.2 0.1 0.3 0.1l0.6 0.3c0.1 0 0.2 0.1 0.3 0.1 0.1 0 0.2 0.1 0.3 0.1 0.1 0 0.2 0.1 0.3 0.1 0.1 0 0.2 0.1 0.3 0.1 0.1 0 0.2 0.1 0.3 0.1 0.3 0.1 0.6 0.3 0.8 0.4 0.1 0 0.2 0.1 0.3 0.1 0.1 0 0.2 0.1 0.3 0.1 0.1 0 0.2 0.1 0.3 0.1 0.1 0 0.2 0.1 0.3 0.1 0.4 0.2 0.7 0.3 1.1 0.5 0.1 0 0.2 0.1 0.3 0.1 0.1 0 0.2 0.1 0.3 0.1 0.6 0.3 1.1 0.5 1.7 0.8 20.3 9 41 16 61.9 21.3 20.6 5.1 41.5-7.4 46.7-28 4.8-15.8-4-33.8-19.9-41.7z" fill="#111111" p-id="1221"></path><path d="M633 815.3c-7.8-3.9-17-5.2-26.2-3-16 3.8-32.4 6.4-48.7 7.6-21.2 1.6-37.1 20.1-35.5 41.3 1.1 14 9.5 25.7 21.2 31.6 6 3 12.9 4.5 20 3.9 20.6-1.6 41-4.8 61-9.6 20.6-5 33.3-25.8 28.4-46.4-2.7-11.4-10.3-20.5-20.2-25.4zM758.1 757.3c-12.5-6.3-28-5.4-40.1 3.4-6.6 4.8-13.5 9.5-20.4 13.8-18.1 11.2-23.7 34.9-12.5 53 3.9 6.3 9.3 11.1 15.5 14.2 11.5 5.8 25.7 5.6 37.5-1.7 8.8-5.4 17.3-11.2 25.7-17.3 17.1-12.6 20.7-36.7 8.1-53.8-3.7-5.1-8.5-9-13.8-11.6zM840.3 680.1c-17.7-11.9-41.6-7.1-53.5 10.5-11.9 17.7-7.1 41.6 10.5 53.5 17.7 11.9 41.6 7.1 53.5-10.5 11.9-17.7 7.2-41.7-10.5-53.5z" fill="#00C569" p-id="1222"></path></svg>