<svg t="1686041236440" class="icon" viewBox="0 0 1024 1024" version="1.1" xmlns="http://www.w3.org/2000/svg" p-id="1722" width="200" height="200"><path d="M662.00000029 887.00000029H99.50000029c-22.5 0-37.50000029-15.00000029-37.50000029-37.50000029v-74.99999971c0-105.00000029 82.50000029-187.49999971 187.49999971-187.50000058h262.50000029c105.00000029 0 187.49999971 82.50000029 187.49999971 187.50000058v74.99999971c0 22.5-15.00000029 37.50000029-37.49999942 37.50000029zM136.99999971 811.99999971h487.50000029v-37.49999942c0-63.74999971-48.75000029-112.5-112.5-112.5H249.49999971c-63.74999971 0-112.5 48.75000029-112.5 112.5v37.49999942zM380.75000029 512c-105.00000029 0-187.49999971-82.50000029-187.50000058-187.49999971s82.50000029-187.49999971 187.50000058-187.50000058 187.49999971 82.50000029 187.49999971 187.50000058-82.50000029 187.49999971-187.49999971 187.49999971z m0-299.99999971c-63.74999971 0-112.5 48.75000029-112.5 112.5s48.75000029 112.5 112.5 112.5 112.5-48.75000029 112.5-112.5-48.75000029-112.5-112.5-112.5zM924.49999971 586.99999971c-11.25 0-18.74999971-3.75000029-26.24999942-11.25l-187.50000058-187.49999971c-15.00000029-15.00000029-15.00000029-37.50000029 0-52.49999971s37.50000029-15.00000029 52.50000058 0l187.49999971 187.49999971c15.00000029 15.00000029 15.00000029 37.50000029 0 52.49999971-7.49999971 7.49999971-15.00000029 11.25-26.25000029 11.25z" fill="#333333" p-id="1723"></path><path d="M737 586.99999971c-11.25 0-18.74999971-3.75000029-26.25000029-11.25-15.00000029-15.00000029-15.00000029-37.50000029 0-52.49999971l187.50000058-187.49999971c15.00000029-15.00000029 37.50000029-15.00000029 52.49999971 0s15.00000029 37.50000029 0 52.49999971l-187.49999971 187.49999971c-7.49999971 7.49999971-15.00000029 11.25-26.25000029 11.25z" fill="#333333" p-id="1724"></path></svg>