<svg t="1686041267281" class="icon" viewBox="0 0 1024 1024" version="1.1" xmlns="http://www.w3.org/2000/svg" p-id="1582" width="200" height="200"><path d="M652.62500027 863.56250027H125.28125027c-21.09375 0-35.15625027-14.06250027-35.15625027-35.15625027v-70.31249973c0-98.43750027 77.34375027-175.78124973 175.78124973-175.78125054h246.09375027c98.43750027 0 175.78124973 77.34375027 175.78124973 175.78125054v70.31249973c0 21.09375-14.06250027 35.15625027-35.15624946 35.15625027zM160.43749973 793.24999973h457.03125027v-35.15624946c0-59.76562473-45.70312527-105.46875-105.46875-105.46875H265.90624973c-59.76562473 0-105.46875 45.70312527-105.46875 105.46875v35.15624946zM388.95312527 512c-98.43750027 0-175.78124973-77.34375027-175.78125054-175.78124973s77.34375027-175.78124973 175.78125054-175.78125054 175.78124973 77.34375027 175.78124973 175.78125054-77.34375027 175.78124973-175.78124973 175.78124973z m0-281.24999973c-59.76562473 0-105.46875 45.70312527-105.46875 105.46875s45.70312527 105.46875 105.46875 105.46875 105.46875-45.70312527 105.46875-105.46875-45.70312527-105.46875-105.46875-105.46875zM793.24999973 617.46875c-21.09375 0-35.15625027-14.06250027-35.15624946-35.15625027V371.37499973c0-21.09375 14.06250027-35.15625027 35.15624946-35.15624946s35.15625027 14.06250027 35.15625027 35.15624946v210.9375c0 21.09375-14.06250027 35.15625027-35.15625027 35.15625027z" fill="#2c2c2c" p-id="1583"></path><path d="M898.71874973 512h-210.9375c-21.09375 0-35.15625027-14.06250027-35.15624946-35.15625027s14.06250027-35.15625027 35.15624946-35.15624946h210.9375c21.09375 0 35.15625027 14.06250027 35.15625027 35.15624946s-14.06250027 35.15625027-35.15625027 35.15625027z" fill="#2c2c2c" p-id="1584"></path></svg>