<svg t="1686041249542" class="icon" viewBox="0 0 1024 1024" version="1.1" xmlns="http://www.w3.org/2000/svg" p-id="1442" width="200" height="200"><path d="M845.98437473 448.71875h-667.96874946c-17.57812473 0-31.640625-14.06250027-31.640625-31.640625s14.06250027-31.640625 31.640625-31.640625h667.96874946c17.57812473 0 31.640625 14.06250027 31.640625 31.640625s-14.06250027 31.640625-31.640625 31.640625z" fill="#2c2c2c" p-id="1443"></path><path d="M845.98437473 459.265625h-667.96874946c-24.60937527 0-42.1875-17.57812473-42.1875-42.1875s17.57812473-42.1875 42.1875-42.1875h667.96874946c24.60937527 0 42.1875 17.57812473 42.1875 42.1875s-17.57812473 42.1875-42.1875 42.1875z m-667.96874946-63.28125c-10.546875 0-21.09375 10.546875-21.09375 21.09375s10.546875 21.09375 21.09375 21.09375h667.96874946c10.546875 0 21.09375-10.546875 21.09375-21.09375s-10.546875-21.09375-21.09375-21.09375h-667.96874946z" fill="#2c2c2c" p-id="1444"></path><path d="M803.79687473 417.078125l-228.51562473-228.51562473c-10.546875-10.546875-10.546875-31.640625 0-45.70312527 10.546875-10.546875 31.640625-10.546875 45.70312527 0l249.60937473 249.60937473c10.546875 10.546875 10.546875 31.640625 0 45.70312527" fill="#2c2c2c" p-id="1445"></path><path d="M877.62499973 448.71875l-14.06249946-14.06250027c7.03124973-7.03124973 7.03124973-21.09375 0-28.12499973l-249.60937554-249.60937473c-7.03124973-7.03124973-21.09375-7.03124973-28.12499973 0s-7.03124973 21.09375 0 28.12499973l228.51562473 228.51562473-21.09375 10.546875L564.734375 195.59375c-17.57812473-17.57812473-17.57812473-42.1875 0-59.76562473 14.06250027-14.06250027 42.1875-14.06250027 59.76562473 0l249.60937554 249.60937473c17.57812473 17.57812473 17.57812473 45.70312527 3.51562446 63.28125z" fill="#2c2c2c" p-id="1446"></path><path d="M178.01562527 575.28125h667.96874946c17.57812473 0 31.640625 14.06250027 31.640625 31.640625s-14.06250027 31.640625-31.640625 31.640625h-667.96874946c-17.57812473 0-31.640625-14.06250027-31.640625-31.640625s14.06250027-31.640625 31.640625-31.640625z" fill="#2c2c2c" p-id="1447"></path><path d="M845.98437473 649.109375h-667.96874946c-24.60937527 0-42.1875-17.57812473-42.1875-42.1875s17.57812473-42.1875 42.1875-42.1875h667.96874946c24.60937527 0 42.1875 17.57812473 42.1875 42.1875s-17.57812473 42.1875-42.1875 42.1875z m-667.96874946-63.28125c-10.546875 0-21.09375 10.546875-21.09375 21.09375s10.546875 21.09375 21.09375 21.09375h667.96874946c10.546875 0 21.09375-10.546875 21.09375-21.09375s-10.546875-21.09375-21.09375-21.09375h-667.96874946z" fill="#2c2c2c" p-id="1448"></path><path d="M220.20312527 606.921875l228.51562473 228.51562473c10.546875 10.546875 10.546875 31.640625 0 45.70312527-10.546875 10.546875-31.640625 10.546875-45.70312527 0l-249.60937473-249.60937473c-10.546875-10.546875-10.546875-31.640625 0-45.70312527" fill="#2c2c2c" p-id="1449"></path><path d="M427.625 898.71874973c-10.546875 0-21.09375-3.51562527-28.12499973-10.546875l-249.60937554-249.60937473c-17.57812473-17.57812473-17.57812473-42.1875 0-59.76562473l14.06250027 14.06249946c-7.03124973 7.03124973-7.03124973 21.09375 0 28.12500054l249.60937473 249.60937473c7.03124973 7.03124973 21.09375 7.03124973 28.12500054 0 7.03124973-7.03124973 7.03124973-21.09375 0-28.12499973l-228.51562554-228.51562554 17.57812554-14.06249946 228.51562473 228.51562473c17.57812473 17.57812473 17.57812473 42.1875 0 59.76562473-10.546875 7.03124973-21.09375 10.546875-31.640625 10.546875z" fill="#2c2c2c" p-id="1450"></path></svg>