<svg t="1686041766392" class="icon" viewBox="0 0 1024 1024" version="1.1" xmlns="http://www.w3.org/2000/svg" p-id="1442" width="200" height="200"><path d="M394.60664287 895.56474307l-1.04059423 0c-12.58786582-1.1548169-21.50621894-6.10596035-27.74348966-14.37405469l-96.77888349-129.06249521L139.99736797 655.32862286c-7.35521309-4.4861581-13.05195117-13.98461836-14.29940479-25.1163712-1.06038105-9.61088379 2.19721026-19.40344453 9.18007559-27.54022764l50.90278798-51.5188705c6.62850615-6.5880334 15.90031934-10.33039599 25.52649346-10.330396 2.38338369 0 6.10775859 0 10.22156982 1.47050332l89.31484425 24.41124932 109.08703916-109.08793828L177.64494277 324.56618018c-9.51464883-5.28661582-16.18003037-14.55932901-18.35835293-25.47073125-1.45341474-12.45565547 2.43734766-23.83114219 9.90588341-31.27809375l66.65470839-66.65560752c10.53725537-9.30868857 23.47768213-12.25059433 34.57345958-8.9543294l334.8762539 80.04123193 75.77722265-75.77812266c40.62635508-40.62545596 99.14428037-69.00031758 142.32220577-69.00031757 21.11318526 0 38.83746797 6.59073164 51.27603485 19.0086126 20.81638653 20.8154874 24.66757529 55.12992188 10.85564005 96.57562148-11.32242363 33.97986123-34.07519707 70.24777208-60.84554678 97.02171914l-76.3762166 76.37351836 80.95681142 352.13555215c3.25759131 13.05285029-1.79068623 27.46198037-12.94042676 36.38213262l-67.12149199 50.3253791c-5.34417627 4.3386583-13.10681338 6.94509083-21.31824638 6.94509082-1.54425323 0-4.65524385 0-8.65842979-1.19259141-10.65057891-2.60463427-19.12193526-9.49396289-23.32928232-18.96993808L563.53550908 601.21950927l-109.08703916 109.08973741 24.68826123 90.33655166c3.23960362 11.91512197 0.22484795 24.24036533-8.32205742 33.84855088l-50.75348906 50.79126357C413.50642842 891.84126729 404.23461523 895.56474307 394.60664287 895.56474307zM164.92666572 626.45100224l132.97484267 100.61478282 97.06039278 129.39706846 47.0498001-47.02821504-30.16284961-110.42713038 160.661671-160.66347011 156.30232675 284.60843525 62.96900713-47.25666035L706.41623604 404.42213779l91.30429599-91.30699423c22.79054795-22.78874883 42.09865752-53.49123281 51.63039492-82.12691778 8.75016738-26.25140127 8.1367831-47.77470879-1.63868906-57.54928183-5.19307911-5.19487823-13.38562442-7.83908526-24.31501435-7.83908526-33.3448919 0-81.84810674 24.31681348-115.36208438 57.83079112L617.17604082 314.28884815l-355.5433415-85.01306133-63.24781817 63.26670498L482.82423154 448.65954511 322.16166055 609.31941787l-110.27783145-30.12327685L164.92666572 626.45100224z" p-id="1443"></path><path d="M394.60664287 899.1623041l-1.36887188-0.01528945c-13.28489297-1.21867383-23.19077637-6.38477138-30.28696523-15.79059405L266.4741166 754.69775117 137.97194082 658.30650401c-8.45246953-5.23804834-14.51975537-15.8301668-15.84905449-27.69312393-1.17280459-10.63169209 2.38788105-21.38390156 10.02460341-30.28336787l0.17088399-0.18617344 50.90278799-51.51887051c7.29675263-7.25268252 17.52461807-11.3997709 28.08525849-11.39977089 2.49310987 0 6.65099033 0 11.29813946 1.63239345l87.17069795 23.82484658 104.21953945-104.22043857L175.91271699 327.7194418c-10.42753008-5.79387217-17.76835283-15.96687451-20.15443564-27.91977012l-0.04586924-0.28780488c-1.54964971-13.28309385 2.43734766-25.76393174 10.93838378-34.2424837l66.8139003-66.80490644c8.14667695-7.19602119 18.04716387-11.15963349 27.87839824-11.15963349 3.42307881 0 6.78859717 0.4793748 10.00571573 1.42373496l332.82744257 79.55106416 74.35438769-74.35528682c41.24693496-41.24603496 100.81894482-70.05350391 144.86568136-70.05350391 22.0620419 0 40.67222432 6.93699697 53.81771132 20.06089893 21.83269747 21.83179834 25.99687441 57.43685742 11.72714942 100.25862451-11.48611201 34.47272724-34.55727012 71.26768037-61.71525703 98.42746641l-74.96777197 74.96597285 80.51071377 350.19376874c3.61374961 14.47568526-1.95437461 30.20062412-14.19867335 39.99768135l-0.08993935 0.06925342-67.06842803 50.28580635c-6.06278935 4.89628037-14.63397803 7.70327753-23.52894697 7.70327754-1.67016797 0-5.13461865 0-9.5991917-1.31670703-11.62371885-2.86905498-20.94769776-10.45720987-25.61373369-20.84066983L562.69008213 607.15278653l-104.2213377 104.22313681 24.13693477 88.32191749c3.56698125 13.12210283 0.24823213 26.67501474-9.10452744 37.1879868l-0.14300332 0.15199717-50.75348906 50.79126358C415.40324258 895.0314043 405.19876133 899.1623041 394.60664287 899.1623041zM393.73333437 891.96718203l0.87420763 0c8.69800254 0 17.04794151-3.36192099 22.90926708-9.2250457l50.67704092-50.71481544c7.65560918-8.65213418 10.3798626-19.74071602 7.47123487-30.43716328l-25.23778859-92.34848759 113.95273976-113.95543799 134.80330341 245.32756787c3.74326172 8.42908536 11.35929815 14.6016 20.89553292 16.93461797l0.1726831 0.04766749c3.50042695 1.04239336 6.18690498 1.04239336 7.63042676 1.04239336 7.30035 0 14.24454258-2.23768301 19.0508836-6.14013663l0.10972529-0.08544199 67.07382362-50.29030283c10.02550254-8.04684463 14.60070088-20.86405401 11.65519776-32.66765157l-81.41819854-354.14209159 77.78466211-77.78286299c26.40429756-26.4078958 48.82609599-62.15146172 59.97673565-95.61507276 13.36313935-40.10111104 9.81684404-73.09164375-9.98682891-92.89441758-11.76492305-11.74603623-28.61679815-17.95542627-48.73255927-17.95542627-42.29292568 0-99.77205498 27.94045606-139.77873018 67.94623213l-77.20005849 77.20095762-337.02129932-80.55928038c-2.5803501-0.76628057-5.28931406-1.1548169-8.05314024-1.15481688-8.04234727 0-16.21870401 3.29716494-23.03248359 9.28440527l-66.57466201 66.57556201c-6.90461895 6.88573125-10.14062432 17.14597471-8.8931707 28.17249873 2.00114297 9.81684404 8.02705781 18.1532918 16.54877987 22.88858115l246.47069268 135.3492334L311.90951094 570.72478467l-91.59210088-25.04441954c-3.52650938-1.2600457-6.82637168-1.2600457-9.01099072-1.2600457-8.67461836 0-17.05333799 3.38440518-22.9902126 9.28440528l-50.78946445 51.40374785c-6.26964961 7.35251484-9.20076153 16.12336816-8.25370401 24.70984629 1.07746963 9.61807852 6.0232166 18.42850547 12.59685967 22.43888613l0.28510664 0.19336904 129.45732802 97.10806114 97.0873752 129.4735166C374.47289316 886.68326445 382.66364023 890.91759394 393.73333437 891.96718203zM394.57246573 861.93924102l-99.24501182-132.30929444L159.47276328 626.83594121l51.33629355-51.66187295 110.28502705 30.1250751 155.7950713-155.79237305L192.45160391 293.38881875l68.06045478-68.0802416 355.54334151 85.01306133 89.4353625-89.4353625c34.12016631-34.12016631 83.70534815-58.88397656 117.90555996-58.88397656 11.92321582 0 20.96028896 2.99227148 26.85938906 8.8931707 10.76300244 10.76300244 11.700167 33.65248359 2.5075002 61.23138486-9.6972249 29.13034922-29.32371826 60.35897637-52.50010518 83.53356416l-89.89495137 89.89764961 85.44386866 371.61274658-68.15668976 51.149221-155.99023857-284.04092021L415.87002617 700.07418565l30.16284961 110.42713037L394.57246573 861.93924102zM170.38056816 626.06606328L300.47646289 724.50252354l0.30309434 0.40472578 94.57178027 126.08011758 42.63919102-42.6194042-30.16284961-110.42713038 165.52827158-165.5300707 156.61441582 285.17595029 57.78042451-43.3631997-85.287375-370.93640538 92.71274062-92.71453974c22.42359668-22.42269756 41.39893125-52.59723925 50.76068468-80.72027139 8.18804883-24.56594473 7.89304834-45.2069499-0.76897882-53.86987617-4.50144844-4.50234756-11.82608174-6.78499981-21.77153876-6.78499981-32.47158428 0-79.91891455 23.87791055-112.81770968 56.77670567L618.29668057 318.25605869l-355.54244239-85.01306132-58.43518066 58.45226923 284.43935039 156.11885156L323.22833721 613.34059151l-110.26973672-30.12147774L170.38056816 626.06606328z" p-id="1444"></path></svg>