<svg t="1686041793301" class="icon" viewBox="0 0 1024 1024" version="1.1" xmlns="http://www.w3.org/2000/svg" p-id="1447" width="200" height="200"><path d="M387.36565244 177.53926396" fill="#2c2c2c" p-id="1448"></path><path d="M880.92312031 534.76086816l-737.49997529 0c-7.80131074 0-15.04679854-4.03916133-19.1489168-10.6757622s-4.47446602-14.92358203-0.98573203-21.90195088l184.37499404-368.74998721c3.81341425-7.6259294 11.60753027-12.44306338 20.13374971-12.44306338l368.74998721 0c8.52621943 0 16.32033457 4.81713398 20.1337497 12.44306338l184.37499405 368.74998721c3.48963398 6.97836885 3.11638711 15.26534999-0.98573203 21.90195088C895.97081797 530.72170683 888.72533018 534.76086816 880.92312031 534.76086816zM179.84575039 489.74009258l664.65476367 0L682.63545957 166.01088096 341.70990665 166.01088096 179.84575039 489.74009258z" fill="#2c2c2c" p-id="1449"></path><path d="M512.17313223 903.51085537c-12.43227127 0-22.50993867-10.07766738-22.50993868-22.50993867l1e-8-368.7499872c0-12.43227127 10.07766738-22.50993867 22.50993867-22.50993868s22.50993867 10.07856651 22.50993867 22.50993867l-1e-8 368.74998721C534.68397002 893.43318799 524.60540352 903.51085537 512.17313223 903.51085537z" fill="#2c2c2c" p-id="1450"></path><path d="M758.00705732 903.51085537L266.339208 903.51085537c-12.43227127 0-22.50993867-10.07766738-22.50993866-22.50993867s10.07856651-22.50993867 22.50993867-22.50993867l491.66784931 0c12.43227127 0 22.50993867 10.07766738 22.50993867 22.50993867S770.43932773 903.51085537 758.00705732 903.51085537z" fill="#2c2c2c" p-id="1451"></path><path d="M685.68079414 717.33708125c-12.43227127 0-22.50993867-10.07766738-22.50993867-22.50993867l0-179.87804297c0-12.43227127 10.07766738-22.50993867 22.50993867-22.50993867s22.50993867 10.07856651 22.50993867 22.50993867l0 179.87804297C708.19163193 707.25941386 698.11306543 717.33708125 685.68079414 717.33708125z" fill="#2c2c2c" p-id="1452"></path><path d="M685.67270029 742.52000762c-21.08620371 0-38.24207227-17.15676768-38.24207226-38.24566963 0-21.09249932 17.15496855-38.25286435 38.24207226-38.25286435 21.09519756 0 38.25736172 17.16036503 38.25736172 38.25286435C723.93096113 725.36323994 706.76879697 742.52000762 685.67270029 742.52000762zM685.67270029 697.49923115c-3.72887138 0-6.76341474 3.03903984-6.76341474 6.77420684 0 3.73156963 3.03364336 6.76701211 6.76341474 6.76701211 3.73786612 0 6.7787042-3.03544161 6.77870421-6.76701211C692.45230362 700.53827099 689.41146464 697.49923115 685.67270029 697.49923115z" fill="#2c2c2c" p-id="1453"></path></svg>