<svg t="1686041345158" class="icon" viewBox="0 0 1030 1024" version="1.1" xmlns="http://www.w3.org/2000/svg" p-id="1442" width="200" height="200"><path d="M406.98489618 550.1221939H183.18612997A66.77352914 66.77352914 0 0 0 116.4921875 616.81613636v223.95794034a66.81332325 66.81332325 0 0 0 66.69394247 66.7337358H406.98489618a66.81332325 66.81332325 0 0 0 66.7337358-66.7337358v-223.95794034A66.77352914 66.77352914 0 0 0 406.98489618 550.1221939z m6.48634434 290.49270867a6.60572436 6.60572436 0 0 1-6.48634434 6.6455177H183.18612997a6.56593102 6.56593102 0 0 1-6.44655025-6.48634357v-223.95794034a6.52613768 6.52613768 0 0 1 6.44655025-6.44655101H406.98489618a6.56593102 6.56593102 0 0 1 6.48634434 6.44655101z" p-id="1443"></path><path d="M903.40908007 338.89818068l-63.66963482-110.06888103a30.10379905 30.10379905 0 1 0-52.12951402 30.12369573l63.6696348 110.06888102a6.64551848 6.64551848 0 0 1-2.38761114 8.87395548l-193.95362464 111.93917645a6.24758277 6.24758277 0 0 1-4.89460306 0.63669652 6.36696356 6.36696356 0 0 1-3.97935242-2.98451432L534.32416579 293.5335659a6.56593102 6.56593102 0 0 1 2.38761114-8.83416215l193.91383129-111.97896978a30.12369573 30.12369573 0 0 0-30.08390239-52.16930738L506.46870043 232.53009715a66.17662673 66.17662673 0 0 0-31.11853384 40.70877251 65.3807561 65.3807561 0 0 0-1.47236049 7.16283419V215.29950191A66.81332325 66.81332325 0 0 0 406.98489618 148.5657661H183.18612997A66.77352914 66.77352914 0 0 0 116.4921875 215.29950191v223.95794033a66.77352914 66.77352914 0 0 0 66.69394247 66.69394245H406.98489618a66.77352914 66.77352914 0 0 0 66.89290992-66.69394245V300.5372252a66.29600752 66.29600752 0 0 0 7.95870406 23.12003644L594.01444818 517.61088626a66.05724595 66.05724595 0 0 0 47.75222591 32.51130764h-53.00497057a66.81332325 66.81332325 0 0 0-66.7337358 66.69394246v223.95794034a66.85311659 66.85311659 0 0 0 66.7337358 66.7337358H812.87881798a66.81332325 66.81332325 0 0 0 66.69394247-66.7337358v-223.95794034A66.77352914 66.77352914 0 0 0 812.87881798 550.1221939h-150.7776543a66.37559421 66.37559421 0 0 0 22.9608623-7.95870406l193.95362464-112.13814469a66.77352914 66.77352914 0 0 0 24.39342945-91.12716448zM413.63041464 439.25744223A6.56593102 6.56593102 0 0 1 406.98489618 445.70399248H183.18612997a6.52613768 6.52613768 0 0 1-6.44655025-6.44655024V215.29950191a6.56593102 6.56593102 0 0 1 6.44655025-6.48634436H406.98489618a6.60572436 6.60572436 0 0 1 6.48634434 6.48634435z m405.53577945 177.55869413v223.95794034a6.56593102 6.56593102 0 0 1-6.44655023 6.48634358h-223.95794034a6.60572436 6.60572436 0 0 1-6.48634434-6.48634358v-223.95794034a6.56593102 6.56593102 0 0 1 6.48634434-6.44655101H812.87881798a6.52613768 6.52613768 0 0 1 6.28737612 6.44655101z" p-id="1444"></path></svg>