<svg t="1686039311524" class="icon" viewBox="0 0 1024 1024" version="1.1" xmlns="http://www.w3.org/2000/svg" p-id="7263" width="200" height="200"><path d="M224 288h320a32 32 0 0 1 0 64H224a32 32 0 0 1 0-64z m0 128h192a32 32 0 0 1 0 64H224a32 32 0 0 1 0-64z m0 128h128a32 32 0 0 1 0 64H224a32 32 0 0 1 0-64z m544-224h-64V192a32 32 0 0 0-32-32H160a32 32 0 0 0-32 32v640a32 32 0 0 0 32 32h352v64H128a64 64 0 0 1-64-64V160a64 64 0 0 1 64-64h576a64 64 0 0 1 64 64v160z m32 448h96a32 32 0 0 1 0 64h-256a32 32 0 0 1 0-64h96v-67.2a160.064 160.064 0 0 1 32-316.8 160 160 0 0 1 32 316.8V768z m-32-128a96 96 0 1 0 0-192 96 96 0 0 0 0 192z m-160 224h320a32 32 0 0 1 0 64H608a32 32 0 0 1 0-64z" fill="#000000" p-id="7264"></path></svg>