<svg t="1686039249853" class="icon" viewBox="0 0 1024 1024" version="1.1" xmlns="http://www.w3.org/2000/svg" p-id="6692" width="200" height="200"><path d="M767.665189 302.053338h-56.248164V197.122498c0-21.189307-17.248372-38.437679-38.423344-38.437679H348.519302c-21.175996 0-38.423345 17.248372-38.423345 38.437679v104.93084h-56.248164V197.122498c0-52.210984 42.461548-94.685843 94.672533-94.685843H672.992657c52.210984 0 94.672533 42.474859 94.672532 94.685843v104.93084zM614.821636 452.123186h301.924328v56.248164H614.821636zM104.779305 452.123186H409.024781v56.248164H104.779305z" fill="#3E3A39" p-id="6693"></path><path d="M875.301134 885.221559H146.225159c-45.6059 0-82.69717-37.105604-82.69717-82.711504V329.477083c0-45.6059 37.09127-82.711504 82.69717-82.711505H875.302158c45.59259 0 82.69717 37.105604 82.69717 82.711505v473.032972c0 45.6059-37.105604 82.711504-82.698194 82.711504zM146.225159 303.014766c-14.584223 0-26.449006 11.864783-26.449006 26.462317v473.032972c0 14.597533 11.864783 26.462316 26.449006 26.462316H875.302158c14.584223 0 26.449006-11.864783 26.449006-26.462316V329.477083c0-14.597533-11.864783-26.462316-26.449006-26.462317H146.225159z" fill="#3E3A39" p-id="6694"></path><path d="M541.956837 656.10674h-62.373046c-40.373846 0-73.222135-32.834978-73.222136-73.19449v-125.927656c0-40.373846 32.848289-73.208825 73.222136-73.208825h62.373046c40.346201 0 73.19449 32.834978 73.19449 73.208825v125.927656c0 40.360536-32.848289 73.19449-73.19449 73.19449z m-62.373046-216.081783c-9.365479 0-16.973971 7.607468-16.973971 16.959637v125.927656c0 9.337834 7.607468 16.946326 16.973971 16.946326h62.373046c9.337834 0 16.946326-7.607468 16.946326-16.946326v-125.927656c0-9.352169-7.607468-16.959637-16.946326-16.959637h-62.373046z" fill="#3E3A39" p-id="6695"></path></svg>