<svg t="1686040811773" class="icon" viewBox="0 0 1821 1024" version="1.1" xmlns="http://www.w3.org/2000/svg" p-id="1432" width="200" height="200"><path d="M1245.11295018 253.41900214l-309.5962541-123.38980573c-22.43451395-8.97380727-45.99075086-8.97380727-68.42526477 0l-269.21413401 107.68565355c-34.77348949 13.4607067-57.20800353 48.23419626-57.20800343 85.2511396V744.7347967c0 11.21725285 6.73035333 21.31278274 17.94761465 25.7996908l333.15249084 133.48534427c3.36517662 1.12172275 6.73035333 2.24345392 10.09552989 2.24344539 3.36517662 0 6.73035333-1.12172275 10.09553007-2.24344539l333.15249086-133.48534427c11.21725285-4.48689941 17.94760617-14.58242942 17.94760621-25.7996908v-465.51610395c0-11.21725285-6.73035333-21.31278274-17.94760621-25.79969061z m-72.91216409 117.78118366v325.30041462c0 3.36517662-2.24345392 6.73035333-5.60863056 7.85207631l-207.51922284 83.007694c-2.24345392 1.12172275-5.6086306 1.12172275-7.85208437-1.12172274-2.24345392-1.12172275-3.36517662-4.48689941-3.36517677-7.85208436v-325.30040648c0-3.36517662 2.24345392-6.73035333 5.60863068-7.85208457l207.51923111-83.00768564c1.12172275 0 2.24345392-1.12172275 3.36517666-1.12173125 2.24345392 0 3.36517662 0 4.48689941 1.12173125 2.24345392 3.36517662 3.36517662 5.6086306 3.36517668 8.97379886z m-90.85977019-80.76424023c0 1.12172275 0 5.6086306-5.60863057 7.85208454l-170.50227944 68.42525634c-2.24345392 1.12172275-4.48689941 1.12172275-6.73035333 0l-170.50228759-68.42525634c-5.6086306-2.24345392-5.6086306-6.73035333-5.60863069-7.85208454 0-1.12172275 0-5.6086306 5.60863069-7.85207617l170.50228759-68.42525623c1.12172275 0 2.24345392-1.12172275 3.36517669-1.12173118 1.12172275 0 2.24345392 0 3.36517664 1.12173118l170.50227944 68.42525623c4.48689941 2.24345392 5.6086306 6.73035333 5.60863057 7.85207617zM855.87417859 454.20787978v325.30041503c0 3.36517662-1.12172275 5.6086306-3.36517665 7.85207592-2.24345392 1.12172275-5.6086306 2.24345392-7.85207619 1.12172294l-207.51923103-83.00768585c-3.36517662-1.12172275-5.6086306-4.48689941-5.60863075-7.8520845v-325.30040633c0-3.36517662 1.12172275-5.6086306 3.36517664-6.73035342 2.24345392-1.12172275 5.6086306-2.24345392 7.85208461-1.12173109l207.51922262 83.0076941c3.36517662 0 5.6086306 3.36517662 5.60863075 6.73035317z" fill="" p-id="1433"></path><path d="M311.83727986 495.71172276c-23.55623666 6.73035333-49.3559274-7.85207614-54.96454955-31.40831275-10.09553001-35.8952207-14.58242942-71.79043297-14.58242947-108.80737646 0-107.68565355 41.50384278-210.88440782 117.78118359-288.28347132 74.03388693-76.27734077 176.11090983-118.90290637 281.55310953-118.90290648h533.94136883v-81.88597124c0-25.79969075 17.94760617-35.8952207 39.26039737-21.31278286l192.93679327 126.75499089c21.31278274 14.58242942 21.31278274 37.01694341 0 50.4776502L1214.82636016 143.48990306c-21.31278274 13.4607067-39.26039738 3.36517662-39.26039737-22.43451399V38.04769481h-531.69791479c-171.62401054 0-309.59625409 141.33742032-309.59625409 316.32660749 0 30.28659003 4.48689941 59.45145738 11.21725272 86.37287089 3.36517662 23.55623666-11.21725285 47.11247343-33.65176677 54.96454957zM1576.02198724 547.31110411c10.09553001 35.8952207 14.58242942 72.91216412 14.58242943 108.8073763 0 107.68565355-41.50384278 210.88440782-117.78118362 288.28347133-74.03388693 76.27734077-176.11090983 118.90290637-281.55310969 118.90290647h-533.94136864v81.88596301c0 25.79969075-17.94760617 35.8952207-39.26039742 21.31279123l-192.93679315-126.75499101c-21.31278274-14.58242942-21.31278274-37.01694341 0-50.47765014l192.93679318-121.14636033c21.31278274-13.4607067 39.26039738-3.36517662 39.26039739 22.43451401v81.88596298h531.69791476c171.62401054 0 310.71797695-141.33742032 310.71797681-316.32660755 0-30.28659003-4.48689941-59.45145738-12.33897555-86.37287075-5.6086306-24.67795948 10.09553001-49.3559274 34.77348966-53.84282679 3.36517662-1.12172275 5.6086306-1.12172275 8.97380732-1.12172289 21.31278274 0 39.26039738 12.33898394 44.86901952 32.53004409z" fill="" p-id="1434"></path></svg>