<svg t="1686040871078" class="icon" viewBox="0 0 1024 1024" version="1.1" xmlns="http://www.w3.org/2000/svg" p-id="1433" width="200" height="200"><path d="M597.5 467c-24.75 0-49.5 6.75-72 18-13.5 6.75-15.75 24.75-4.5 36l76.5 76.5-27 27-76.5-76.5c-4.5-4.5-9-6.75-15.75-6.75-9 0-15.75 4.5-20.25 13.5-29.25 58.5-20.25 132.75 29.25 182.25 31.5 31.5 69.75 45 110.25 45 18 0 36-2.25 51.75-9l128.25 123.75 15.75 15.75c9 9 22.5 9 31.5 0l15.75-15.75 31.5-31.5 15.75-15.75c9-9 9-22.5 0-31.5l-15.75-15.75-128.25-123.75c20.25-56.25 6.75-119.25-36-164.25-31.5-31.5-72-47.25-110.25-47.25z m103.5 195.75c-6.75 15.75-2.25 33.75 11.25 47.25l128.25 123.75-31.5 31.5-128.25-123.75c-9-9-20.25-13.5-31.5-13.5-4.5 0-9 0-15.75 2.25-11.25 4.5-24.75 6.75-38.25 6.75-29.25 0-58.5-11.25-78.75-33.75-27-27-38.25-63-31.5-99l51.75 51.75c9 9 20.25 13.5 31.5 13.5 11.25 0 22.5-4.5 31.5-13.5l27-27c18-18 18-47.25 0-63l-51.75-51.75c6.75-2.25 13.5-2.25 20.25-2.25 29.25 0 58.5 11.25 78.75 33.75 31.5 29.25 42.75 74.25 27 117zM467 444.5c0-13.5-11.25-22.5-22.5-22.5h-135c-11.25 0-22.5 9-22.5 22.5s11.25 22.5 22.5 22.5h135c11.25 0 22.5-11.25 22.5-22.5zM374.75 557h-60.75c-13.5 0-24.75 9-24.75 22.5s11.25 22.5 24.75 22.5h60.75c13.5 0 24.75-9 24.75-22.5s-11.25-22.5-24.75-22.5zM374.75 692h-60.75c-13.5 0-24.75 9-24.75 22.5s11.25 22.5 24.75 22.5h60.75c13.5 0 24.75-9 24.75-22.5s-11.25-22.5-24.75-22.5zM309.5 332h405c11.25 0 22.5-11.25 22.5-22.5s-11.25-22.5-22.5-22.5h-405c-11.25 0-22.5 11.25-22.5 22.5s11.25 22.5 22.5 22.5z" fill="#040000" p-id="1434"></path><path d="M849.5 107h-675c-11.25 0-22.5 11.25-22.5 22.5v765c0 13.5 11.25 22.5 22.5 22.5h337.5c13.5 0 22.5-9 22.5-22.5s-9-22.5-22.5-22.5h-315v-720h630v337.5c0 13.5 9 22.5 22.5 22.5s22.5-9 22.5-22.5v-360c0-13.5-11.25-22.5-22.5-22.5z" fill="#040000" p-id="1435"></path></svg>