<svg t="1686039353674" class="icon" viewBox="0 0 1024 1024" version="1.1" xmlns="http://www.w3.org/2000/svg" p-id="7689" width="200" height="200"><path d="M515.9 810.9H140.4c-5.7 0-11.2-2.3-15.2-6.3s-6.3-9.5-6.3-15.2v-612c0-11.9 9.7-21.6 21.6-21.6h480.3c5.7 0 11.2 2.3 15.2 6.3s6.3 9.5 6.3 15.2V402c9.5-1.2 19.1-1.7 28.9-1.7v-1.5c8.7 0 17.4 0.5 25.9 1.4V177.4c0-42.2-34.2-76.4-76.4-76.4H140.4c-42.1 0.2-76.2 34.3-76.4 76.4v612c0.2 42.1 34.3 76.2 76.4 76.4h480.3c3.9 0 7.8-0.3 11.6-0.9-42.9-6.9-83.3-25.5-116.4-54z" p-id="7690"></path><path d="M483.2 322.8H167c-1.3 0.1-2.3 1.3-2.3 2.6v53.3c0 1.3 1 2.5 2.3 2.6h316.2c1.3-0.1 2.3-1.3 2.3-2.6v-53.3c0-1.3-1-2.5-2.3-2.6zM382.6 439.4H167c-0.7-0.1-1.3 0.1-1.8 0.6-0.5 0.4-0.8 1.1-0.8 1.8v53.9c0 0.7 0.3 1.3 0.8 1.8s1.2 0.7 1.8 0.6h215.7c0.6 0 1.2-0.2 1.6-0.7 0.4-0.4 0.7-1 0.7-1.6V442c0-1.3-1-2.3-2.3-2.3v-0.3z m-89.2 131.1H167c-1.3 0.1-2.3 1.3-2.3 2.6v52.5c0 1.3 1 2.5 2.3 2.6h126.5c0.8 0.8 2.1 1 3 0.3 0.9-0.7 1.3-1.9 0.8-2.9v-52.2c0.1-0.7-0.1-1.3-0.6-1.8-0.4-0.5-1.1-0.8-1.8-0.8l-1.5-0.3z m0 0M671.1 398.8c62.5-0.1 122.5 24.6 166.7 68.8 66.9 67.2 86.8 168.2 50.3 255.7-36.5 87.6-122.1 144.6-217 144.4-62.3 0.5-122.2-23.7-166.7-67.3-66.9-67.2-86.8-168.2-50.3-255.7 36.5-87.6 122.1-144.6 217-144.4m0-52.8c-158.5 0.7-286.6 129.6-286.1 288.2 0.4 158.5 129.2 286.8 287.7 286.6 158.5-0.2 287-128.8 287-287.3-0.2-76.4-30.6-149.5-84.7-203.4-54.2-54-127.5-84.2-203.9-84.1z m0 0" p-id="7691"></path><path d="M849.2 582.1h-42.6c-3.3-33.2-18.3-64.2-42.3-87.4H594.8c-46.9 11.9-56.5 87.4-56.5 87.4H496v20.4h29.1c-5.9 8.5-10.6 17.7-14 27.4v129.4c7 31.5 49.5 13.4 49.5 13.4v-34.1h225.9V766c27.4 34.1 56.5-6.7 56.5-6.7V657l-14-54.5h21.3l-1.1-20.4z m-260.5-61.4h174.9c12.3 12.7 20 29.1 21.9 46.6 2 16.6-6.3 32.7-21 40.8H588.7c-16.3 0-29.1-27.1-29.1-27.1-3.2-22.4 29.1-61.5 29.1-61.5v1.2z m-21.3 184.1c-14.9-0.9-26.2-13.6-25.6-28.5 0.6-14.9 13-26.5 27.9-26.2 14.9 0.3 26.8 12.4 26.8 27.3-0.1 7.5-3.2 14.7-8.7 19.9-5.5 5.2-12.9 7.9-20.4 7.5z m162.9-8.4c0 0.5-0.2 0.9-0.5 1.2-0.3 0.3-0.8 0.5-1.2 0.5H624.8c-0.5 0-0.9-0.2-1.2-0.5-0.3-0.3-0.5-0.8-0.5-1.2v-37.6c0.1-0.8 0.9-1.5 1.7-1.5h102.9c0.9 0 1.6 0.6 1.7 1.5l0.9 37.6z m55.9 8.4c-14.9-0.9-26.2-13.6-25.6-28.5 0.6-14.9 13-26.5 27.9-26.2 14.9 0.3 26.8 12.4 26.8 27.3-0.8 15.5-13.6 27.5-29.1 27.4z m0 0" p-id="7692"></path></svg>