<svg t="1686038371341" class="icon" viewBox="0 0 1024 1024" version="1.1" xmlns="http://www.w3.org/2000/svg" p-id="6119" width="200" height="200"><path d="M564 859l0 39.3c27.4-3.8 54.1-10.1 79.4-19.2l-17.6-35.2C606 850.7 585.3 855.7 564 859z" p-id="6120"></path><path d="M681.2 819.2l20.7 33.1c23.2-13 45.2-28.1 65.1-45.3 0.7 1.1-30-25.9-30-25.9C719.8 795.5 701 808.2 681.2 819.2z" p-id="6121"></path><path d="M642 564.2 538 564.2l0-52 104 0 0-39-91 0 91-156-39 0-81.6 145.3-1 0c0 0-40-60.8-86.4-145.3l-39 0 91 156-91 0 0 39 104 0 0 52L395 564.2l0 39 104 0 0 104 39 0 0-104 104 0L642 564.2z" p-id="6122"></path><path d="M777.6 741.2l32.8 21.9c16.3-19.3 30.7-40.2 43-62.4L816.7 686C805.4 705.7 792.3 724.2 777.6 741.2z" p-id="6123"></path><path d="M512 122.2c-215.4 0-390 174.6-390 390 0 211 167.6 382.8 377 389.6l0-39.3c-187.8-6.9-338-160.9-338-350.3 0-193.9 157.2-351 351-351 193.8 0 351 157.1 351 351 0 17.7-1.4 35-4 52L798 564.2l78 78c0 0 25.9-40.8 25.9-130C902 296.8 727.4 122.2 512 122.2z" p-id="6124"></path></svg>