<svg t="1686041822789" class="icon" viewBox="0 0 1024 1024" version="1.1" xmlns="http://www.w3.org/2000/svg" p-id="1447" width="200" height="200"><path d="M808.63085938 619.86576733a26.96644183 26.96644183 0 0 0 26.96644183-26.96644183V224.35795482a35.95525603 35.95525603 0 0 0-35.95525603-35.95525603h-107.86576655V152.44744353a35.95525603 35.95525603 0 0 0-35.95525604-35.95525603H368.17897742a35.95525603 35.95525603 0 0 0-35.95525605 35.95525603v35.95525526H224.35795482a35.95525603 35.95525603 0 0 0-35.95525603 35.95525603v647.19460165a35.95525603 35.95525603 0 0 0 35.95525604 35.95525603h575.28409035a35.95525603 35.95525603 0 0 0 35.95525603-35.95525603v-116.85458077a26.96644183 26.96644183 0 0 0-53.93288367 0V853.57492884H242.33558246V242.33558246h89.88813891v35.95525526a35.95525603 35.95525603 0 0 0 35.95525605 35.95525603h287.64204517a35.95525603 35.95525603 0 0 0 35.95525604-35.95525603V242.33558246h89.88813891v350.56374304a26.96644183 26.96644183 0 0 0 26.96644183 26.96644182zM637.84339496 260.31321009H386.15660504V170.42507116h251.68678992z m8.9888142 161.79865098h-269.66441832a26.96644183 26.96644183 0 0 0 0 53.9328829h269.66441832a26.96644183 26.96644183 0 0 0 0-53.93288289z m26.96644106 152.80983602a26.96644183 26.96644183 0 0 0-26.96644106-26.96644106h-269.66441832a26.96644183 26.96644183 0 0 0 0 53.93288289h269.66441832a26.96644183 26.96644183 0 0 0 26.96644106-26.96644183zM413.12304687 673.79865022a26.96644183 26.96644183 0 0 0 1e-8 53.93288365h197.75390624a26.96644183 26.96644183 0 0 0 1e-8-53.93288365z" p-id="1448"></path></svg>