<svg t="1686039285148" class="icon" viewBox="0 0 1024 1024" version="1.1" xmlns="http://www.w3.org/2000/svg" p-id="6979" width="200" height="200"><path d="M785.066667 520.533333l-106.666667 106.666667-29.866667-29.866667 76.8-76.8-76.8-76.8 29.866667-29.866666 106.666667 106.666666z m128 0l-106.666667 106.666667-29.866667-29.866667 76.8-76.8-76.8-76.8 29.866667-29.866666 106.666667 106.666666zM469.333333 597.333333h85.333334v42.666667h-85.333334v42.666667h-42.666666v-42.666667H341.333333v-42.666667h85.333334v-42.666666H341.333333v-42.666667h85.333334L320 405.333333l29.866667-29.866666 98.133333 98.133333 98.133333-98.133333 29.866667 29.866666L469.333333 512h85.333334v42.666667h-85.333334v42.666666z m298.666667-256h-42.666667V256H170.666667v554.666667h554.666666v-85.333334h42.666667v128H128V213.333333h640v128z" fill="#444444" p-id="6980"></path></svg>