<svg t="1686040730675" class="icon" viewBox="0 0 1024 1024" version="1.1" xmlns="http://www.w3.org/2000/svg" p-id="1851" width="200" height="200"><path d="M511.97595477 90.125a421.85095477 421.85095477 0 0 0 0 843.70190872 26.74535065 26.74535065 0 0 0 3.20606708 0 26.74535065 26.74535065 0 0 0 3.20606708 0h366.41973888a31.97630237 31.97630237 0 0 0 22.27373027-54.84062384l-153.38500681-149.16649741a31.93411733 31.93411733 0 1 0-44.54746052 45.81301382l97.02571948 94.28368772h-287.70235125a26.74535065 26.74535065 0 0 0-3.20606708 0 26.74535065 26.74535065 0 0 0-3.20606707 0 357.64523904 357.64523904 0 1 1 351.27528991-288.92571872 31.97630237 31.97630237 0 1 0 62.77142149 12.23367793A422.27280505 422.27280505 0 0 0 511.97595477 90.125z" p-id="1852"></path><path d="M526.99384866 795.92383194a33.74807603 33.74807603 0 0 0 33.49496586-33.49496585v-87.11222224h91.54165677a33.49496585 33.49496585 0 0 0 0-66.98993169h-91.54165678v-58.04669092h89.30584699a33.53715088 33.53715088 0 0 0 0-67.03211672h-89.60114301a30.0779728 30.0779728 0 0 0 4.2185094-3.67010323l110.52495072-110.52494987a33.49496585 33.49496585 0 0 0-47.37386234-47.37386234l-100.78019357 100.82237777-105.46273828-105.46273828a33.49496585 33.49496585 0 0 0-46.99419626 47.54260244l110.52494989 110.5249499a33.19966983 33.19966983 0 0 0 13.41486036 8.14172361H404.1508508a33.53715088 33.53715088 0 0 0 0 67.03211672h89.34803201v58.04669092H406.51321567a33.49496585 33.49496585 0 0 0 0 66.98993169h86.98566714v87.11222224a33.74807603 33.74807603 0 0 0 33.49496585 33.49496585zM520.75045462 482.44638732l0.92807145 0.63277708h-2.82640101c0.63277625 0 1.26555249-0.25311017 1.89832956-0.63277707z" p-id="1853"></path></svg>